<?xml version="1.0" standalone="no"?>
<!DOCTYPE svg PUBLIC "-//W3C//DTD SVG 20010904//EN"
 "http://www.w3.org/TR/2001/REC-SVG-20010904/DTD/svg10.dtd">
<svg version="1.0" xmlns="http://www.w3.org/2000/svg"
 width="553.000000pt" height="553.000000pt" viewBox="0 0 553.000000 553.000000"
 preserveAspectRatio="xMidYMid meet">
<metadata>
Created by potrace 1.14, written by Peter Selinger 2001-2017
</metadata>
<g transform="translate(0.000000,553.000000) scale(0.100000,-0.100000)"
fill="#000000" stroke="none">
<path d="M2510 5520 c-30 -4 -82 -10 -115 -14 -126 -15 -440 -88 -525 -123 -8
-3 -19 -7 -25 -8 -26 -6 -249 -102 -320 -138 -142 -71 -399 -234 -461 -292 -6
-5 -28 -23 -49 -40 -168 -131 -368 -347 -512 -551 -280 -398 -433 -812 -492
-1334 -8 -69 -6 -486 3 -555 5 -40 27 -186 31 -205 29 -140 42 -193 71 -290
263 -870 934 -1557 1795 -1835 101 -33 243 -71 294 -79 11 -2 61 -11 110 -19
155 -27 204 -30 441 -32 228 -2 375 12 582 54 241 49 533 157 758 282 95 53
248 149 294 186 8 6 51 40 95 74 88 69 129 105 219 194 272 268 481 580 620
923 71 174 137 398 160 537 36 220 41 275 41 505 0 266 -9 358 -62 605 -55
261 -169 555 -301 780 -38 64 -143 227 -152 235 -3 3 -25 32 -50 65 -48 64
-65 85 -149 179 -423 474 -1029 792 -1676 882 -127 18 -525 26 -625 14z"/>
</g>
</svg>
